<svg width="85" height="18" viewBox="0 0 85 18" fill="none" xmlns="http://www.w3.org/2000/svg">
<path d="M0.155623 18V0.0703355H7.92981C9.29555 0.0703355 10.4424 0.254185 11.3704 0.621883C12.3043 0.989581 13.0076 1.50903 13.4803 2.18022C13.9589 2.85142 14.1982 3.64226 14.1982 4.55275C14.1982 5.21227 14.0523 5.81343 13.7605 6.35622C13.4745 6.89902 13.0718 7.35426 12.5523 7.72196C12.0329 8.08382 11.4259 8.33479 10.7313 8.47487V8.64996C11.5017 8.67914 12.2021 8.87466 12.8325 9.23653C13.4628 9.59255 13.9647 10.0857 14.3383 10.7161C14.7118 11.3406 14.8986 12.076 14.8986 12.9223C14.8986 13.9028 14.6418 14.7753 14.1282 15.5399C13.6204 16.3045 12.8967 16.9057 11.957 17.3434C11.0173 17.7811 9.89671 18 8.59517 18H0.155623ZM5.02325 14.1129H7.29947C8.11658 14.1129 8.72941 13.9612 9.13796 13.6577C9.54652 13.3483 9.75079 12.8931 9.75079 12.2919C9.75079 11.8717 9.65449 11.5157 9.46189 11.2238C9.26929 10.932 8.99497 10.7102 8.63895 10.5585C8.28876 10.4067 7.86561 10.3309 7.36951 10.3309H5.02325V14.1129ZM5.02325 7.31924H7.01932C7.44539 7.31924 7.82184 7.25212 8.14868 7.11788C8.47552 6.98365 8.72941 6.79104 8.91034 6.54007C9.09711 6.28327 9.19049 5.97102 9.19049 5.60332C9.19049 5.04885 8.99205 4.62571 8.59517 4.33388C8.19829 4.03622 7.69635 3.88739 7.08936 3.88739H5.02325V7.31924ZM16.183 18V0.0703355H23.9222C25.2529 0.0703355 26.4173 0.312549 27.4153 0.796977C28.4134 1.28141 29.1896 1.97886 29.7441 2.88936C30.2985 3.79985 30.5758 4.89127 30.5758 6.16362C30.5758 7.44765 30.2898 8.53031 29.7178 9.41162C29.1517 10.2929 28.355 10.9583 27.3278 11.4077C26.3064 11.8571 25.1128 12.0818 23.7471 12.0818H19.1246V8.29977H22.7666C23.3385 8.29977 23.8259 8.22973 24.2286 8.08966C24.6372 7.94375 24.9494 7.71321 25.1654 7.39804C25.3871 7.08287 25.498 6.67139 25.498 6.16362C25.498 5.65001 25.3871 5.2327 25.1654 4.9117C24.9494 4.58485 24.6372 4.34556 24.2286 4.19381C23.8259 4.03622 23.3385 3.95743 22.7666 3.95743H21.0506V18H16.183ZM26.6887 9.77056L31.1711 18H25.8832L21.5059 9.77056H26.6887ZM36.8679 18H31.6151L37.5333 0.0703355H44.1869L50.105 18H44.8522L40.9301 5.008H40.79L36.8679 18ZM35.8874 10.9262H45.7627V14.5682H35.8874V10.9262ZM66.905 0.0703355V18H62.8428L56.3644 8.57992H56.2593V18H51.3917V0.0703355H55.5239L61.8973 9.45539H62.0374V0.0703355H66.905ZM75.666 18H68.7673V0.0703355H75.596C77.4403 0.0703355 79.0337 0.429279 80.3761 1.14717C81.7243 1.85922 82.7632 2.88644 83.4927 4.22883C84.2281 5.56538 84.5958 7.16749 84.5958 9.03517C84.5958 10.9028 84.231 12.5079 83.5015 13.8503C82.7719 15.1868 81.7389 16.214 80.4023 16.9319C79.0658 17.644 77.487 18 75.666 18ZM73.6349 13.8678H75.4909C76.3781 13.8678 77.1339 13.7248 77.7584 13.4388C78.3887 13.1528 78.8673 12.6596 79.1942 11.9592C79.5268 11.2589 79.6932 10.2842 79.6932 9.03517C79.6932 7.78616 79.5239 6.81147 79.1854 6.11109C78.8527 5.41071 78.3625 4.91753 77.7146 4.63154C77.0726 4.34556 76.2847 4.20256 75.3508 4.20256H73.6349V13.8678Z" fill="white"/>
</svg>
