<svg width="315" height="47" viewBox="0 0 315 47" fill="none" xmlns="http://www.w3.org/2000/svg">
<path d="M108.156 22V4.07034H115.93C117.296 4.07034 118.442 4.25418 119.37 4.62188C120.304 4.98958 121.008 5.50903 121.48 6.18022C121.959 6.85142 122.198 7.64226 122.198 8.55275C122.198 9.21227 122.052 9.81343 121.76 10.3562C121.474 10.899 121.072 11.3543 120.552 11.722C120.033 12.0838 119.426 12.3348 118.731 12.4749V12.65C119.502 12.6791 120.202 12.8747 120.832 13.2365C121.463 13.5926 121.965 14.0857 122.338 14.7161C122.712 15.3406 122.899 16.076 122.899 16.9223C122.899 17.9028 122.642 18.7753 122.128 19.5399C121.62 20.3045 120.897 20.9057 119.957 21.3434C119.017 21.7811 117.897 22 116.595 22H108.156ZM113.023 18.1129H115.299C116.117 18.1129 116.729 17.9612 117.138 17.6577C117.547 17.3483 117.751 16.8931 117.751 16.2919C117.751 15.8717 117.654 15.5157 117.462 15.2238C117.269 14.932 116.995 14.7102 116.639 14.5585C116.289 14.4067 115.866 14.3309 115.37 14.3309H113.023V18.1129ZM113.023 11.3192H115.019C115.445 11.3192 115.822 11.2521 116.149 11.1179C116.476 10.9836 116.729 10.791 116.91 10.5401C117.097 10.2833 117.19 9.97102 117.19 9.60332C117.19 9.04885 116.992 8.62571 116.595 8.33388C116.198 8.03622 115.696 7.88739 115.089 7.88739H113.023V11.3192ZM124.183 22V4.07034H131.922C133.253 4.07034 134.417 4.31255 135.415 4.79698C136.413 5.28141 137.19 5.97886 137.744 6.88936C138.299 7.79985 138.576 8.89127 138.576 10.1636C138.576 11.4476 138.29 12.5303 137.718 13.4116C137.152 14.2929 136.355 14.9583 135.328 15.4077C134.306 15.8571 133.113 16.0818 131.747 16.0818H127.125V12.2998H130.767C131.339 12.2998 131.826 12.2297 132.229 12.0897C132.637 11.9437 132.949 11.7132 133.165 11.398C133.387 11.0829 133.498 10.6714 133.498 10.1636C133.498 9.65001 133.387 9.2327 133.165 8.9117C132.949 8.58485 132.637 8.34556 132.229 8.19381C131.826 8.03622 131.339 7.95743 130.767 7.95743H129.051V22H124.183ZM134.689 13.7706L139.171 22H133.883L129.506 13.7706H134.689ZM144.868 22H139.615L145.533 4.07034H152.187L158.105 22H152.852L148.93 9.008H148.79L144.868 22ZM143.887 14.9262H153.763V18.5682H143.887V14.9262ZM174.905 4.07034V22H170.843L164.364 12.5799H164.259V22H159.392V4.07034H163.524L169.897 13.4554H170.037V4.07034H174.905ZM183.666 22H176.767V4.07034H183.596C185.44 4.07034 187.034 4.42928 188.376 5.14717C189.724 5.85922 190.763 6.88644 191.493 8.22883C192.228 9.56538 192.596 11.1675 192.596 13.0352C192.596 14.9028 192.231 16.5079 191.501 17.8503C190.772 19.1868 189.739 20.214 188.402 20.9319C187.066 21.644 185.487 22 183.666 22ZM181.635 17.8678H183.491C184.378 17.8678 185.134 17.7248 185.758 17.4388C186.389 17.1528 186.867 16.6596 187.194 15.9592C187.527 15.2589 187.693 14.2842 187.693 13.0352C187.693 11.7862 187.524 10.8115 187.185 10.1111C186.853 9.41071 186.362 8.91753 185.715 8.63154C185.073 8.34556 184.285 8.20256 183.351 8.20256H181.635V17.8678Z" fill="white"/>
<path d="M194.222 2.33082V1.02344H199.416V2.33082H197.619V7H196.019V2.33082H194.222ZM199.88 1.02344H201.9L203.289 4.4086H203.359L204.748 1.02344H206.767V7H205.18V3.5448H205.133L203.802 6.95331H202.845L201.514 3.52146H201.468V7H199.88V1.02344Z" fill="white"/>
</svg>
